<svg width="237" height="205" viewBox="0 0 237 205" fill="none" xmlns="http://www.w3.org/2000/svg">
<path d="M19 24C19 10.7452 29.7452 0 43 0H237V181C237 194.255 226.255 205 213 205H19V24Z" fill="#8D9DCA" fill-opacity="0.3"/>
<path d="M47 75C47 70.5817 50.5817 67 55 67H207C211.418 67 215 70.5817 215 75V151C215 155.418 211.418 159 207 159H55C50.5817 159 47 155.418 47 151V75Z" fill="white"/>
<path d="M198 78V78.5H199C199.234 78.5 199.463 78.5228 199.684 78.5664L199.779 78.0762C200.304 78.1799 200.792 78.3864 201.222 78.6738L200.944 79.0889C201.326 79.3445 201.655 79.6738 201.911 80.0557L202.325 79.7773C202.613 80.2067 202.819 80.6946 202.923 81.2197H202.924L202.434 81.3164C202.477 81.5371 202.5 81.7656 202.5 82V82.9004H203V84.7002H202.5V86.5H203V88.2998H202.5V90.0996H203V91.9004H202.5V93.7002H203V95.5H202.5V97.2998H203V99.0996H202.5V100C202.5 100.234 202.477 100.463 202.434 100.684L202.923 100.779C202.819 101.304 202.613 101.792 202.325 102.222L201.911 101.944C201.655 102.326 201.326 102.655 200.944 102.911L201.222 103.325C200.792 103.613 200.304 103.819 199.779 103.923L199.684 103.434C199.463 103.477 199.234 103.5 199 103.5H198V104H196V103.5H194V104H192V103.5H190V104H188V103.5H186V104H184V103.5H182V104H180V103.5H178V104H176V103.5H174V104H172V103.5H170V104H168V103.5H166V104H164V103.5H162V104H160V103.5H158V104H156V103.5H154V104H152V103.5H150V104H148V103.5H146V104H144V103.5H142V104H140V103.5H138V104H136V103.5H134V104H132V103.5H130V104H128V103.5H126V104H124V103.5H122V104H120V103.5H118V104H116V103.5H114V104H112V103.5H110V104H108V103.5H106V104H104V103.5H102V104H100V103.5H98V104H96V103.5H94V104H92V103.5H90V104H88V103.5H86V104H84V103.5H82V104H80V103.5H78V104H76V103.5H74V104H72V103.5H70V104H68V103.5H66V104H64V103.5H63C62.7656 103.5 62.5371 103.477 62.3164 103.434L62.2197 103.923C61.6946 103.819 61.2067 103.613 60.7773 103.325L61.0557 102.911C60.6738 102.655 60.3445 102.326 60.0889 101.944L59.6738 102.222C59.3864 101.792 59.1799 101.304 59.0762 100.779L59.5664 100.684C59.5228 100.463 59.5 100.234 59.5 100V99.0996H59V97.2998H59.5V95.5H59V93.7002H59.5V91.9004H59V90.0996H59.5V88.2998H59V86.5H59.5V84.7002H59V82.9004H59.5V82C59.5 81.7656 59.5228 81.5371 59.5664 81.3164L59.0762 81.2197C59.18 80.6947 59.3864 80.2066 59.6738 79.7773L60.0889 80.0557C60.3445 79.6738 60.6738 79.3445 61.0557 79.0889L60.7773 78.6738C61.2066 78.3864 61.6947 78.18 62.2197 78.0762L62.3164 78.5664C62.5371 78.5228 62.7656 78.5 63 78.5H64V78H66V78.5H68V78H70V78.5H72V78H74V78.5H76V78H78V78.5H80V78H82V78.5H84V78H86V78.5H88V78H90V78.5H92V78H94V78.5H96V78H98V78.5H100V78H102V78.5H104V78H106V78.5H108V78H110V78.5H112V78H114V78.5H116V78H118V78.5H120V78H122V78.5H124V78H126V78.5H128V78H130V78.5H132V78H134V78.5H136V78H138V78.5H140V78H142V78.5H144V78H146V78.5H148V78H150V78.5H152V78H154V78.5H156V78H158V78.5H160V78H162V78.5H164V78H166V78.5H168V78H170V78.5H172V78H174V78.5H176V78H178V78.5H180V78H182V78.5H184V78H186V78.5H188V78H190V78.5H192V78H194V78.5H196V78H198Z" fill="#EBEFF6"/>
<path d="M198 78V78.5H199C199.234 78.5 199.463 78.5228 199.684 78.5664L199.779 78.0762C200.304 78.1799 200.792 78.3864 201.222 78.6738L200.944 79.0889C201.326 79.3445 201.655 79.6738 201.911 80.0557L202.325 79.7773C202.613 80.2067 202.819 80.6946 202.923 81.2197H202.924L202.434 81.3164C202.477 81.5371 202.5 81.7656 202.5 82V82.9004H203V84.7002H202.5V86.5H203V88.2998H202.5V90.0996H203V91.9004H202.5V93.7002H203V95.5H202.5V97.2998H203V99.0996H202.5V100C202.5 100.234 202.477 100.463 202.434 100.684L202.923 100.779C202.819 101.304 202.613 101.792 202.325 102.222L201.911 101.944C201.655 102.326 201.326 102.655 200.944 102.911L201.222 103.325C200.792 103.613 200.304 103.819 199.779 103.923L199.684 103.434C199.463 103.477 199.234 103.5 199 103.5H198V104H196V103.5H194V104H192V103.5H190V104H188V103.5H186V104H184V103.5H182V104H180V103.5H178V104H176V103.5H174V104H172V103.5H170V104H168V103.5H166V104H164V103.5H162V104H160V103.5H158V104H156V103.5H154V104H152V103.5H150V104H148V103.5H146V104H144V103.5H142V104H140V103.5H138V104H136V103.5H134V104H132V103.5H130V104H128V103.5H126V104H124V103.5H122V104H120V103.5H118V104H116V103.5H114V104H112V103.5H110V104H108V103.5H106V104H104V103.5H102V104H100V103.5H98V104H96V103.5H94V104H92V103.5H90V104H88V103.5H86V104H84V103.5H82V104H80V103.5H78V104H76V103.5H74V104H72V103.5H70V104H68V103.5H66V104H64V103.5H63C62.7656 103.5 62.5371 103.477 62.3164 103.434L62.2197 103.923C61.6946 103.819 61.2067 103.613 60.7773 103.325L61.0557 102.911C60.6738 102.655 60.3445 102.326 60.0889 101.944L59.6738 102.222C59.3864 101.792 59.1799 101.304 59.0762 100.779L59.5664 100.684C59.5228 100.463 59.5 100.234 59.5 100V99.0996H59V97.2998H59.5V95.5H59V93.7002H59.5V91.9004H59V90.0996H59.5V88.2998H59V86.5H59.5V84.7002H59V82.9004H59.5V82C59.5 81.7656 59.5228 81.5371 59.5664 81.3164L59.0762 81.2197C59.18 80.6947 59.3864 80.2066 59.6738 79.7773L60.0889 80.0557C60.3445 79.6738 60.6738 79.3445 61.0557 79.0889L60.7773 78.6738C61.2066 78.3864 61.6947 78.18 62.2197 78.0762L62.3164 78.5664C62.5371 78.5228 62.7656 78.5 63 78.5H64V78H66V78.5H68V78H70V78.5H72V78H74V78.5H76V78H78V78.5H80V78H82V78.5H84V78H86V78.5H88V78H90V78.5H92V78H94V78.5H96V78H98V78.5H100V78H102V78.5H104V78H106V78.5H108V78H110V78.5H112V78H114V78.5H116V78H118V78.5H120V78H122V78.5H124V78H126V78.5H128V78H130V78.5H132V78H134V78.5H136V78H138V78.5H140V78H142V78.5H144V78H146V78.5H148V78H150V78.5H152V78H154V78.5H156V78H158V78.5H160V78H162V78.5H164V78H166V78.5H168V78H170V78.5H172V78H174V78.5H176V78H178V78.5H180V78H182V78.5H184V78H186V78.5H188V78H190V78.5H192V78H194V78.5H196V78H198Z" stroke="#8D9DCA" stroke-dasharray="2 2"/>
<mask id="mask0_2158_79003" style="mask-type:alpha" maskUnits="userSpaceOnUse" x="123" y="83" width="16" height="16">
<rect x="123" y="83" width="16" height="16" fill="#D9D9D9"/>
</mask>
<g mask="url(#mask0_2158_79003)">
<path d="M130.5 91.4993H127.167C127.025 91.4993 126.906 91.4514 126.811 91.3555C126.715 91.2596 126.667 91.1408 126.667 90.9992C126.667 90.8574 126.715 90.7387 126.811 90.643C126.906 90.5472 127.025 90.4993 127.167 90.4993H130.5V87.166C130.5 87.0243 130.548 86.9056 130.644 86.8098C130.74 86.714 130.859 86.666 131 86.666C131.142 86.666 131.261 86.714 131.356 86.8098C131.452 86.9056 131.5 87.0243 131.5 87.166V90.4993H134.833C134.975 90.4993 135.094 90.5473 135.19 90.6432C135.285 90.7391 135.333 90.8578 135.333 90.9995C135.333 91.1413 135.285 91.26 135.19 91.3557C135.094 91.4515 134.975 91.4993 134.833 91.4993H131.5V94.8327C131.5 94.9743 131.452 95.0931 131.356 95.1888C131.26 95.2847 131.142 95.3327 131 95.3327C130.858 95.3327 130.739 95.2847 130.644 95.1888C130.548 95.0931 130.5 94.9743 130.5 94.8327V91.4993Z" fill="#303030"/>
</g>
<path d="M59 120C59 117.791 60.7909 116 63 116H199C201.209 116 203 117.791 203 120V144C203 146.209 201.209 148 199 148H63C60.7909 148 59 146.209 59 144V120Z" fill="#EBEFF6"/>
<path d="M86.8001 126.301H81.4001C80.9344 126.301 80.475 126.409 80.0585 126.617C79.6419 126.826 79.2795 127.128 79.0001 127.501C78.7207 127.128 78.3583 126.826 77.9417 126.617C77.5252 126.409 77.0658 126.301 76.6001 126.301H71.2001C71.041 126.301 70.8884 126.364 70.7758 126.477C70.6633 126.589 70.6001 126.742 70.6001 126.901V137.701C70.6001 137.86 70.6633 138.013 70.7758 138.125C70.8884 138.238 71.041 138.301 71.2001 138.301H76.6001C77.0775 138.301 77.5353 138.49 77.8729 138.828C78.2105 139.166 78.4001 139.623 78.4001 140.101C78.4001 140.26 78.4633 140.413 78.5758 140.525C78.6884 140.638 78.841 140.701 79.0001 140.701C79.1592 140.701 79.3118 140.638 79.4244 140.525C79.5369 140.413 79.6001 140.26 79.6001 140.101C79.6001 139.623 79.7897 139.166 80.1273 138.828C80.4649 138.49 80.9227 138.301 81.4001 138.301H86.8001C86.9592 138.301 87.1118 138.238 87.2244 138.125C87.3369 138.013 87.4001 137.86 87.4001 137.701V126.901C87.4001 126.742 87.3369 126.589 87.2244 126.477C87.1118 126.364 86.9592 126.301 86.8001 126.301ZM76.6001 137.101H71.8001V127.501H76.6001C77.0775 127.501 77.5353 127.69 77.8729 128.028C78.2105 128.366 78.4001 128.823 78.4001 129.301V137.701C77.8813 137.31 77.2494 137.1 76.6001 137.101ZM86.2001 137.101H81.4001C80.7508 137.1 80.1189 137.31 79.6001 137.701V129.301C79.6001 128.823 79.7897 128.366 80.1273 128.028C80.4649 127.69 80.9227 127.501 81.4001 127.501H86.2001V137.101Z" fill="#8D9DCA"/>
<rect x="95" y="130" width="92" height="4" rx="2" fill="#8D9DCA"/>
<path d="M4 45.5H144C145.933 45.5 147.5 47.067 147.5 49V69C147.5 70.933 145.933 72.5 144 72.5H4C2.067 72.5 0.5 70.933 0.5 69V49C0.5 47.067 2.067 45.5 4 45.5Z" fill="#ECF5FD"/>
<path d="M4 45.5H144C145.933 45.5 147.5 47.067 147.5 49V69C147.5 70.933 145.933 72.5 144 72.5H4C2.067 72.5 0.5 70.933 0.5 69V49C0.5 47.067 2.067 45.5 4 45.5Z" stroke="#0099FF"/>
<path d="M27.8001 53.3008H22.4001C21.9344 53.3008 21.475 53.4092 21.0585 53.6175C20.6419 53.8258 20.2795 54.1282 20.0001 54.5008C19.7207 54.1282 19.3583 53.8258 18.9417 53.6175C18.5252 53.4092 18.0658 53.3008 17.6001 53.3008H12.2001C12.041 53.3008 11.8884 53.364 11.7758 53.4765C11.6633 53.589 11.6001 53.7417 11.6001 53.9008V64.7008C11.6001 64.8599 11.6633 65.0125 11.7758 65.125C11.8884 65.2376 12.041 65.3008 12.2001 65.3008H17.6001C18.0775 65.3008 18.5353 65.4904 18.8729 65.828C19.2105 66.1656 19.4001 66.6234 19.4001 67.1008C19.4001 67.2599 19.4633 67.4125 19.5758 67.525C19.6884 67.6376 19.841 67.7008 20.0001 67.7008C20.1592 67.7008 20.3118 67.6376 20.4244 67.525C20.5369 67.4125 20.6001 67.2599 20.6001 67.1008C20.6001 66.6234 20.7897 66.1656 21.1273 65.828C21.4649 65.4904 21.9227 65.3008 22.4001 65.3008H27.8001C27.9592 65.3008 28.1118 65.2376 28.2244 65.125C28.3369 65.0125 28.4001 64.8599 28.4001 64.7008V53.9008C28.4001 53.7417 28.3369 53.589 28.2244 53.4765C28.1118 53.364 27.9592 53.3008 27.8001 53.3008ZM17.6001 64.1008H12.8001V54.5008H17.6001C18.0775 54.5008 18.5353 54.6904 18.8729 55.028C19.2105 55.3656 19.4001 55.8234 19.4001 56.3008V64.7008C18.8813 64.3104 18.2494 64.0997 17.6001 64.1008ZM27.2001 64.1008H22.4001C21.7508 64.0997 21.1189 64.3104 20.6001 64.7008V56.3008C20.6001 55.8234 20.7897 55.3656 21.1273 55.028C21.4649 54.6904 21.9227 54.5008 22.4001 54.5008H27.2001V64.1008Z" fill="#1976D2"/>
<rect x="36" y="57" width="92" height="4" rx="2" fill="#3790E7"/>
</svg>
